<svg version="1" xmlns="http://www.w3.org/2000/svg" width="666.667" height="666.667" viewBox="0 0 500.000000 500.000000"><path d="M0 250v250h500V0H0v250zm59.9-146.8C69.5 129 77.7 150 78 150c.3 0 8.4-21 18.1-46.8l17.6-46.7 14.2-.3 14.1-.3V181h-22v-17.8c0-9.7.5-29.4 1.1-43.7.6-14.3.9-27.3.7-28.8-.2-2.1-4.2 7.3-14.2 33.5-7.6 19.9-15.7 40.9-17.9 46.6l-3.9 10.3-8.1-.3-8-.3-17.6-46c-20.4-53.4-19-52.5-17.2-10.3.6 13.6 1.1 32 1.1 40.8v16H14V55.9l14.1.3 14.2.3 17.6 46.7zm188 12c12.3 32.6 23 60.8 23.8 62.6l1.4 3.3-11.7-.3-11.7-.3-5.1-14.3-5-14.2h-48.2l-4.9 14.2-5 14.3-11.2.3c-6.2.1-11.3-.1-11.3-.5s10.4-28.6 23.2-62.5L205.5 56h20l22.4 59.2zm61.3-30.7l.3 28.5 22.2-26.8c12.3-14.8 23.1-27.6 24.1-28.6 1.6-1.4 3.8-1.6 14.6-1.4l12.7.3-23 27.4-23 27.5 5.7 8c3.1 4.5 14.1 20 24.4 34.6l18.7 26.5-12.2.3c-6.6.1-12.6.1-13.1-.1-.6-.3-9.4-12.4-19.5-27l-18.4-26.5-6.8 7.1-6.8 7.2-.1 19.7V181h-22V56h22l.2 28.5zM479 65v9h-59v34h51v18h-51v37h60v18h-82V56h81v9zM70.2 207.1c10.5 2.3 19.7 8.5 24.5 16.6 2.3 3.9 6.3 15 6.3 17.4 0 .6-4 .9-9.6.7l-9.6-.3-1.5-4.4c-2.1-6.4-4-8.8-8.7-11.6-9.3-5.5-23.2-3.9-30.5 3.4-6.3 6.3-8.3 13.1-8.9 29.9-.8 24.9 3.6 36.7 16.3 43.5 6.1 3.3 20.2 3.1 27-.3l5-2.5.3-11.3.3-11.2H58v-15h43v43.8l-4.2 3.7C88 317 75.4 321 60.5 321c-24.9 0-41.8-14-47.1-39.1-2.1-9.7-1.4-34.7 1.1-42.9 5.2-16.8 15.6-27.6 30.5-31.6 5.8-1.6 18.4-1.7 25.2-.3zm103.8.9c11.8 2.2 21.3 8.9 25.2 17.8 2.8 6.3 3.5 18.3 1.4 25.4-1.8 6.2-8.2 14.2-14.4 17.9-2 1.2-3.9 2.4-4 2.5-.2.1 4.3 8.9 10.1 19.6 5.7 10.6 11.4 21.2 12.6 23.5l2.1 4.3h-21.5l-11-21.3-11-21.2-10.8-.3-10.7-.3V319h-20V207h23.4c12.8 0 25.7.5 28.6 1zm119 7v8h-53v31h46v16h-46v33h53v16h-73V207h73v8zm86.6 46.2c11.1 29.6 20.6 54.7 20.9 55.8.6 2 .3 2.1-9.6 1.8l-10.3-.3-4.4-12.8-4.5-12.7-21.6.2-21.6.3-4.4 12.7-4.4 12.8h-20.5l21.1-56 21.1-56.1 8.9.3 9 .3 20.3 53.7zM485 215v8h-35v96h-19v-96h-35v-16h89v8zM377.5 346.4c7.4 1.9 10.7 4 15.6 9.4 4.3 4.8 7.9 12.5 7.9 16.9 0 2.2-.4 2.3-7.8 2.3h-7.7l-1.8-4.9c-2.9-8.4-11.1-13-20.5-11.7-9.8 1.3-15.5 7-18.4 17.9-1.9 7.5-1.5 28.9.6 34.7 2.5 6.6 6.1 11.3 10.9 14.1 5.6 3.2 18.1 3.4 24.2.4l4-2 .3-9.3.3-9.2H366v-13h36v35.6l-3.2 3.1c-9.4 9.1-30.1 12.9-45 8.3-12.5-3.9-21.9-14.3-25.3-28-2.5-10-1.8-33 1.3-41.3 4.2-11.5 12.6-19.9 23.1-23.1 5.9-1.9 18.2-2 24.6-.2zm85.5.2c6.8 2 11.9 5.3 15.8 10 3.3 4 6.2 11.1 6.2 15.1 0 2.3-.2 2.4-8.2 2.1l-8.2-.3-.9-4.2c-2.9-14.7-30.6-15.1-33.3-.5-.9 4.7 1.6 9.3 6.5 12 2.1 1.2 8.5 3.8 14.2 5.8 5.7 2 12.6 4.8 15.3 6.2 15.9 8.6 19.5 27.3 7.6 39.3-5.7 5.7-11.7 7.9-23.6 8.6-9.6.6-16.8-.8-24.6-4.8-8.2-4.2-14.7-13.5-14.8-21.2V411h8c6.9 0 8 .2 8 1.7.1 4.3 3.9 10.2 8 12.3 12.9 6.6 29 1.6 29-9 0-8.2-2.8-10.6-20.1-16.6-12.8-4.5-16.9-6.5-22-11.1-6.3-5.7-8.2-10.2-7.7-18.9.3-6.1.8-7.9 3.4-11.6 3.4-4.8 11.7-10.3 17.8-11.7 6.6-1.4 17.8-1.2 23.6.5zm-372 5.9v6.5H62v81H46v-81H17v-13h74v6.5zm30 13V385h42v-39h16v94h-16v-42h-42v42h-17v-94h17v19.5zm95 27.5v47h-17v-94h17v47zm56.9-13.7l20.6 32.9.3-33.1.2-33.1h16v94h-16.5L273 407.3l-20.5-32.7-.3 32.7-.2 32.7h-17v-94.1l8.7.3 8.6.3 20.6 32.8z"/><path d="M215 84.1c0 .3-3.8 11.3-8.5 24.5-4.7 13.1-8.5 24.2-8.5 24.6 0 .5 7.9.8 17.5.8s17.5-.3 17.5-.7c0-.4-3.6-11.1-8.1-23.7-7.3-20.8-9.8-27.2-9.9-25.5zM142 241.4V260h11.8c13.3 0 17.8-1 22.2-4.7 4.4-3.7 6-7.4 6-14 0-7.4-3-12.8-8.5-15.7-3.4-1.8-6.2-2.2-17.7-2.4l-13.8-.4v18.6zM349.6 233c-.3.8-3.9 10.9-7.9 22.5l-7.4 21 15.5.3c8.5.1 15.6.1 15.8-.1.3-.3-6.7-20.8-14.8-43.7-.5-1.3-.6-1.3-1.2 0z"/></svg>